<svg xmlns="http://www.w3.org/2000/svg" viewBox="0 0 64 64">
  <!-- quizmill mark: an eight-paddle mill wheel that is also a progress
       loop — one segment golden, the turn of the wheel. -->
  <g fill="none" stroke="#211d18" stroke-width="9" stroke-linecap="round">
    <path stroke="#b45309" d="M 25.79 8.82 A 24 24 0 0 1 38.21 8.82"/>
    <path d="M 44.00 11.22 A 24 24 0 0 1 52.78 20.00"/>
    <path d="M 55.18 25.79 A 24 24 0 0 1 55.18 38.21"/>
    <path d="M 52.78 44.00 A 24 24 0 0 1 44.00 52.78"/>
    <path d="M 38.21 55.18 A 24 24 0 0 1 25.79 55.18"/>
    <path d="M 20.00 52.78 A 24 24 0 0 1 11.22 44.00"/>
    <path d="M 8.82 38.21 A 24 24 0 0 1 8.82 25.79"/>
    <path d="M 11.22 20.00 A 24 24 0 0 1 20.00 11.22"/>
  </g>
  <circle cx="32" cy="32" r="5" fill="#211d18"/>
</svg>
